#!OML:ASF E:\Style4\Style4.ASF
:FULLY-SPECIFIED
:DEGREES
2446
root 0.376677 16.3269 -0.0383637 4.42484 8.96095 4.59844
lowerback 14.0371 3.88557 -1.27713
upperback 5.89994 4.94481 -1.01491
thorax -1.6432 2.46665 -1.08831
lowerneck 0.0565036 -2.03906 -4.30199
upperneck 4.38239 -2.70524 1.37151
head 1.43434 -1.39212 1.11817
rclavicle -3.93594e-014 2.78299e-014
rhumerus -29.6675 23.9087 -55.5892
rradius 136.479
rwrist -74.9417
rhand 50.5718 -2.16054
rfingers 7.12502
rthumb 70.3214 3.15817
lclavicle -3.93594e-014 2.78299e-014
lhumerus -12.2373 -14.8813 47.5972
lradius 140
lwrist 74.8777
lhand 35.7944 48.8526
lfingers 7.12502
lthumb 58.827 63.808
rfemur -30.5001 -11.7211 13.2589
rtibia 64.4148
rfoot -31.0015 -22.0185
rtoes -16.4287
lfemur -31.2261 -4.03733 -25.344
ltibia 59.8975
lfoot -30.8699 10.1926
ltoes -17.4273
2447
root 0.375225 16.3276 -0.0367554 4.53058 8.98877 4.57858
lowerback 14.0443 3.86987 -1.26719
upperback 5.72704 4.9214 -1.03391
thorax -1.82631 2.45445 -1.11844
lowerneck -1.44956 -2.06008 -4.29788
upperneck 6.12444 -2.66146 1.34506
head 2.26399 -1.38202 1.09853
rclavicle 3.97569e-015 2.38542e-015
rhumerus -29.894 24.0467 -55.8237
rradius 136.529
rwrist -74.8194
rhand 50.6768 -2.15724
rfingers 7.12502
rthumb 70.3882 3.38806
lclavicle 3.97569e-015 2.38542e-015
lhumerus -12.3658 -15.0135 47.6749
lradius 139.978
lwrist 74.817
lhand 35.8741 48.9189
lfingers 7.12502
lthumb 58.896 63.8082
rfemur -30.6153 -11.7138 13.3145
rtibia 64.4132
rfoot -30.9825 -22.1335
rtoes -16.6676
lfemur -31.3653 -4.10916 -25.2804
ltibia 59.9077
lfoot -30.9583 10.0257
ltoes -16.9267
2448
root 0.376377 16.3294 -0.0340473 4.58498 9.04774 4.49549
lowerback 14.0526 3.83759 -1.15525
upperback 5.60772 4.89125 -1.02989
thorax -1.94755 2.44012 -1.1778
lowerneck -3.02682 -2.06243 -4.29016
upperneck 7.81899 -2.58836 1.29882
head 3.12306 -1.35727 1.07482
rclavicle -9.10434e-014 3.97569e-015
rhumerus -30.0129 24.1111 -55.9535
rradius 136.562
rwrist -74.7824
rhand 50.7269 -2.14795
rfingers 7.12502
rthumb 70.4201 3.50625
lclavicle -9.10434e-014 3.97569e-015
lhumerus -12.4089 -15.0831 47.7891
lradius 139.898
lwrist 74.7679
lhand 36.1267 48.9531
lfingers 7.12502
lthumb 59.1143 63.6308
rfemur -30.6472 -11.7566 13.4163
rtibia 64.3861
rfoot -30.9214 -22.3903
rtoes -17.0247
lfemur -31.4417 -4.18006 -25.1845
ltibia 59.9262
lfoot -30.9863 9.98432
ltoes -16.6397
2449
root 0.377966 16.3312 -0.0294549 4.61315 9.05981 4.45793
lowerback 14.0587 3.82044 -1.08989
upperback 5.52023 4.87546 -1.03193
thorax -2.03732 2.43247 -1.21818
lowerneck -4.51288 -2.06686 -4.34549
upperneck 9.37156 -2.52198 1.31184
head 3.95261 -1.33496 1.08391
rclavicle -2.66371e-014 -7.95139e-015
rhumerus -30.0079 24.1532 -56.019
rradius 136.514
rwrist -74.7607
rhand 50.7301 -2.13145
rfingers 7.12502
rthumb 70.4221 3.52961
lclavicle -2.66371e-014 -7.95139e-015
lhumerus -12.4436 -15.1663 48.0154
lradius 139.808
lwrist 74.5746
lhand 36.1863 48.9561
lfingers 7.12502
lthumb 59.1658 63.5834
rfemur -30.6428 -11.7764 13.452
rtibia 64.3654
rfoot -30.8219 -22.5776
rtoes -17.5255
lfemur -31.4589 -4.21972 -25.1433
ltibia 59.9352
lfoot -30.9525 9.81137
ltoes -15.7949
2450
root 0.377846 16.3294 -0.0260059 4.6795 9.07103 4.48101
lowerback 14.0261 3.80869 -1.12372
upperback 5.43552 4.85511 -1.0227
thorax -2.11269 2.42139 -1.18824
lowerneck -5.86373 -2.08315 -4.40839
upperneck 11.164 -2.47989 1.33051
head 4.37711 -1.31791 0.991376
rclavicle 5.1684e-014 3.97569e-015
rhumerus -29.9414 24.2429 -56.042
rradius 136.445
rwrist -74.6869
rhand 50.5318 -2.06042
rfingers 7.12502
rthumb 70.2958 3.17214
lclavicle 5.1684e-014 3.97569e-015
lhumerus -12.501 -15.196 48.3152
lradius 139.751
lwrist 74.2878
lhand 36.0793 49.009
lfingers 7.12502
lthumb 59.0734 63.7266
rfemur -30.7036 -11.7805 13.4352
rtibia 64.3682
rfoot -30.721 -22.7043
rtoes -17.9913
lfemur -31.5209 -4.27876 -25.1642
ltibia 59.943
lfoot -30.9175 9.80248
ltoes -15.6114
2451
root 0.376018 16.3294 -0.0232936 4.74567 9.10142 4.51437
lowerback 14.0152 3.8038 -1.15862
upperback 5.36079 4.84297 -1.02651
thorax -2.18793 2.41461 -1.17358
lowerneck -7.19057 -2.10096 -4.37195
upperneck 12.5873 -2.42873 1.19856
head 5.03496 -1.30507 0.930973
rclavicle -1.37161e-014 -3.18055e-015
rhumerus -29.8197 24.2511 -56.0516
rradius 136.378
rwrist -74.6275
rhand 50.398 -2.11113
rfingers 7.12502
rthumb 70.21 2.8356
lclavicle -1.37161e-014 -3.18055e-015
lhumerus -12.5737 -15.1738 48.5158
lradius 139.772
lwrist 74.1178
lhand 35.9939 49.1047
lfingers 7.12502
lthumb 58.9996 63.894
rfemur -30.7745 -11.7705 13.4202
rtibia 64.3805
rfoot -30.7295 -22.5934
rtoes -17.6204
lfemur -31.5823 -4.33305 -25.185
ltibia 59.9372
lfoot -30.9663 9.90172
ltoes -15.9879
